<svg xmlns="http://www.w3.org/2000/svg" width="720" height="720" viewBox="0 0 720 720">
  <rect width="720" height="720" fill="#b3a4ea"/>
  <path d="M217.77034342754632 227.84759108852595 L499.8694342361763 225.8600144667551 L497.5583247350529 453.0932857377455 L219.1958467112854 452.7166004581377" stroke="none" stroke-width="0" fill="#F5F2EC" stroke-linecap="round" stroke-linejoin="round"/><path d="M218.0513498400377 227.59582445863765 C277.8336964964724 228.03817112881202, 333.1274615558326 226.61525459744382, 501.5710526849863 227.55120897201598 M219.3472903494104 226.16552239008283 C309.07467498176635 225.37166752576115, 400.12042968126 226.02092502056504, 500.67883677142953 225.29707367378035 M497.9033435538864 224.84204645026043 C501.6001613043561 292.77252221655175, 502.2235874186005 357.78005701801527, 499.88108322701265 453.63627528640524 M500.48824842320374 225.4090254292085 C501.9534574396815 311.70869857447343, 501.65297172536293 395.56899930740803, 501.0594057354229 452.75996339744205 M498.5941668911876 452.81095251856595 C438.23784523566644 449.36193611836063, 379.2752082512592 447.7198496318113, 221.32091695183829 450.29856218593216 M499.9887823414584 452.6731405374268 C425.6018874702624 453.30250207551444, 351.6915529530083 452.5916295840112, 220.34916091206566 451.52585832118723 M220.73039715402675 451.527144425434 C221.79855320697203 406.46695743423084, 223.20976144366347 357.41166311158355, 219.50769150527537 226.60585354823917 M220.95996468946174 452.37946540838493 C219.5317877052728 370.5728255188825, 219.24914211812802 290.4158493809437, 219.4596132665613 226.6226948206944" stroke="#171425" stroke-width="3.2" fill="none" stroke-linecap="round" stroke-linejoin="round"/><path d="M302.82324564155266 288.94475792234124 C306.96352265921234 289.6310700500213, 310.38363217806545 293.8462875757187, 313.1048920723698 297.73974368984335 C315.82615196667416 301.633199803968, 319.1462782493193 307.57121870001106, 319.1508050073787 312.3054946070891 C319.1553317654381 317.0397705141671, 316.2154152743146 322.41438640230683, 313.1320526207262 326.14539913231147 C310.0486899671378 329.8764118623161, 304.98169418736427 334.0231338439794, 300.65062908584855 334.6915709871169 C296.31956398433283 335.3600081302544, 290.8714474610879 332.8892371163274, 287.1456620116318 330.15602199113647 C283.4198765621758 327.4228068659455, 279.9077043006403 322.602315088338, 278.29591638911205 318.2922802359711 C276.6841284775838 313.98224538360415, 276.0446394319598 308.62291770445995, 277.4749345424623 304.2958128769349 C278.90522965296475 299.9687080494099, 281.49665463190354 294.31934589383013, 286.87768705212676 292.3296512708208 C292.25871947235 290.3399566478115, 305.3878642923855 291.36713670165534, 309.7611290638016 292.35764513887904 C314.13439383521774 293.34815357610273, 313.46980041113807 297.9089119997834, 313.11727568062355 298.272701894163 M293.4507810146443 288.63141550162266 C297.6106918345413 287.3799734651454, 303.13030294942047 289.2543750934113, 306.726729044097 291.3584738990534 C310.32315513877353 293.46257270469556, 313.2639455796363 297.0192281535341, 315.02933758270336 301.25600833547554 C316.7947295857704 305.492788517417, 318.154614008759 311.8613063968633, 317.3190810624993 316.77915499070207 C316.48354811623966 321.6970035845408, 313.8612057785403 327.80962059083873, 310.01613990514545 330.763099898508 C306.1710740317506 333.7165792061773, 299.0713727783214 334.800757029477, 294.2486858221302 334.5000308367177 C289.425998865939 334.19930464395844, 284.1087553318227 332.2772503359494, 281.0800181679981 328.95874274195234 C278.0512810041735 325.64023514795525, 276.30312272024105 319.6906404665348, 276.0762628391827 314.58898527273516 C275.8494029581243 309.48733007893554, 276.85631617466527 302.22053906148363, 279.71885888164803 298.3488115791546 C282.5814015886308 294.47708409682554, 290.9985885546066 292.83656020354806, 293.25151908107915 291.3586203787608 C295.5044496075517 289.88068055397355, 292.89508252383865 289.44396230018526, 293.2364420404834 289.48117263043105" stroke="#171425" stroke-width="3.4" fill="none" stroke-linecap="round" stroke-linejoin="round"/><path d="M418.25793832247234 288.76508620298716 C422.28027363607015 287.39606211600466, 428.6576286154985 288.7352744534192, 432.6703095184191 291.5786747342036 C436.68299042133975 294.422075014988, 441.123178879744 301.04639387029846, 442.3340237399961 305.8254878876937 C443.5448686002482 310.604581905089, 441.52175456953967 315.93764959855065, 439.93537867993166 320.2532388385753 C438.34900279032365 324.5688280786, 436.57960248007583 329.3479846453627, 432.8157684023479 331.7190233278419 C429.05193432461994 334.0900620103211, 422.0429551748537 335.5090159531708, 417.3523742135639 334.47947093345044 C412.6617932522741 333.4499259137301, 407.15581499017225 329.30778738905474, 404.67228263460896 325.54175320952 C402.1887502790457 321.7757190299852, 402.1927435704461 316.82384437786044, 402.4511800801842 311.8832658562418 C402.7096165899223 306.94268733462314, 402.7598550892717 299.7064124526545, 406.2229016930374 295.8982820798082 C409.6859482968031 292.09015170696193, 419.7356315939248 290.0945756817181, 423.2294597027784 289.0344836191641 C426.723287811632 287.97439155661016, 427.34039818386293 289.1040696880556, 427.18587034615905 289.53772970448426 M412.26432528169533 290.649704802986 C415.6930727684548 288.3845157594071, 421.0196725133493 288.7851936327494, 425.5550010319746 289.93032329510265 C430.0903295505999 291.0754529574559, 436.6332552262176 293.43205090764286, 439.4762963934471 297.52048277710554 C442.3193375606766 301.6089146465682, 443.18864050651 309.56643676361125, 442.6132480353517 314.4609145118789 C442.0378555641934 319.3553922601466, 439.3551310789863 323.73450858138176, 436.0239415664973 326.8873492667114 C432.6927520540083 330.04018995204103, 426.62459133910977 332.669822636384, 422.62611096041775 333.37795862385667 C418.6276305817257 334.0860946113293, 415.3947500500907 333.68651746208894, 412.033059294345 331.1361651915473 C408.67136853859927 328.5858129210057, 403.89750159631836 322.8740593026503, 402.45596642594364 318.07584500060693 C401.0144312555689 313.27763069856354, 401.3543299956092 306.6228994215552, 403.38384827209654 302.3468793792871 C405.4133665485839 298.070859337019, 412.69376593411425 294.4429353103631, 414.6330760848679 292.41972474699816 C416.5723862356216 290.3965141836332, 415.2215376579725 289.80197330257874, 415.01970917661856 290.20761599909736" stroke="#171425" stroke-width="3.4" fill="none" stroke-linecap="round" stroke-linejoin="round"/><path d="M294.2014882799238 386.0407602015883 C319.75090361796316 387.88143383022845, 348.29829220734536 385.1413556551605, 425.5542780037969 388.95352128185334 M296.5188031705096 387.94784367065876 C344.5195929737762 386.2755915368364, 393.8194826992229 387.50076644666643, 423.92202189881357 388.71907762866465" stroke="#171425" stroke-width="3.4" fill="none" stroke-linecap="round" stroke-linejoin="round"/><path d="M361.9159307619557 227.8938103625551 C359.4556301978845 214.14483838509767, 361.87532522356696 200.74227239061148, 357.92260495033116 164.86355743501335 M360.9755379383452 224.99182186229154 C360.695967059711 212.46091770594938, 360.17911190030907 200.52795161036775, 360.46753532635046 166.39773826403544" stroke="#171425" stroke-width="3.2" fill="none" stroke-linecap="round" stroke-linejoin="round"/><path d="M359.6959067585463 127.89923690112552 C363.42548504544123 127.34690048339138, 369.09580722885937 128.87835252536462, 372.024431003117 131.44065914530356 C374.95305477737463 134.0029657652425, 376.76913371785207 138.8914463249481, 377.26764940409197 143.27307662075916 C377.76616509033187 147.6547069165702, 376.80160231289375 153.88824077462868, 375.0155251205563 157.73044092016988 C373.2294479282188 161.57264106571108, 369.92337275245825 164.57872716463504, 366.55118625006713 166.3262774940063 C363.178999747676 168.07382782337754, 358.3456453802952 169.45811597271373, 354.7824061062097 168.21574289639736 C351.2191668321242 166.973369820081, 347.06901721125996 162.6678794419482, 345.171750605554 158.87203903610813 C343.27448399984803 155.07619863026807, 342.86069311040984 149.56359775458748, 343.3988064719738 145.4407004613569 C343.93691983353773 141.31780316812632, 344.3373263788327 136.91757020631786, 348.4004307749378 134.1346552767247 C352.46353517104285 131.3517403471315, 363.80009271185406 128.6251505392185, 367.77743284860424 128.7432108837978 C371.7547729853544 128.86127122837706, 372.3687381678239 134.23276920864214, 372.2644715954388 134.84301734420038 M364.8207534664723 127.86025136182941 C368.50434742456997 128.51601617469402, 374.73186692373827 131.98415765145646, 376.5359220784119 135.55282935909966 C378.3399772330855 139.12150106674287, 376.6133375310072 144.79353856753292, 375.6450843945141 149.27228160768857 C374.67683125802097 153.75102464784422, 373.15706840899514 159.16743039602613, 370.7264032594532 162.4252876000335 C368.29573810991127 165.68314480404086, 364.4369901437217 168.90656153649002, 361.0610934972625 168.81942483173285 C357.6851968508033 168.73228812697567, 353.25599748133965 164.71368615841138, 350.471023380698 161.90246737149042 C347.68604928005635 159.09124858456946, 345.6367720709592 155.8857918758905, 344.3512488934127 151.95211211020708 C343.06572571586617 148.01843234452366, 341.1276572488157 141.8518417571322, 342.75788431541895 138.30038877738997 C344.3881113820222 134.74893579764773, 350.59004488305715 132.51970631963263, 354.132611293032 130.64339423175363 C357.6751777030069 128.76708214387463, 362.0483639854086 127.55117601008142, 364.01328277526824 127.04251625011601 C365.97820156512785 126.5338564901506, 365.91257681266075 126.71042965429154, 365.9221240321895 127.59143567196114" stroke="none" stroke-width="0" fill="#F5F2EC" stroke-linecap="round" stroke-linejoin="round"/><path d="M362.0298031253076 127.66951536856689 C365.4128253552759 128.20851743091973, 370.4596778193554 132.36896629633404, 372.9282449704617 135.4493127413411 C375.396812121568 138.52965918634814, 376.8009231666146 142.1928806156911, 376.8412060319452 146.15159403860926 C376.8814888972758 150.1103074615274, 375.2460893798382 155.55723126500712, 373.1699421624452 159.20159327884994 C371.09379494505214 162.84595529269276, 367.757299141665 167.02438607702175, 364.38432272758683 168.01776612166614 C361.0113463135087 169.01114616631054, 356.24463591488626 167.06118581948698, 352.93208367797615 165.16187354671624 C349.61953144106604 163.2625612739455, 346.1401737185031 160.33630571808487, 344.5090093061262 156.6218924850416 C342.8778448937493 152.90747925199832, 342.27302431089294 146.99137749407274, 343.1450972037146 142.87539414845665 C344.0171700965363 138.75941080284056, 346.03923903592306 134.24587725917445, 349.74144666305614 131.92599241134502 C353.4436542901892 129.6061075635156, 362.36776008354826 129.11986506895647, 365.3583429665129 128.95608506148005 C368.34892584947755 128.79230505400363, 367.8408793092295 130.53156008393483, 367.6849439608441 130.94331236648645 M363.58537443780995 130.18758152958222 C367.5751613934704 131.15328137221013, 374.156216423657 134.3990556340034, 376.50938186603406 137.57331919706692 C378.86254730841114 140.74758276013046, 378.1106707198883 145.32514285084096, 377.70436709207235 149.2331629079635 C377.2980634642564 153.14118296508605, 376.80739321586407 158.05595863682535, 374.0715600991386 161.02143953980217 C371.3357269824131 163.986920442779, 365.38987195686275 166.73359039863826, 361.2893683917197 167.0260483258245 C357.1888648265766 167.31850625301072, 352.2441075780343 164.8188322816514, 349.4685387082801 162.77618710291952 C346.6929698385259 160.73354192418765, 345.26679654546916 158.45903751793608, 344.63595517319465 154.77017725343333 C344.0051138009201 151.08131698893058, 344.10923802949065 144.6784915821301, 345.68349047463295 140.643025515903 C347.25774291977524 136.60755944967588, 350.7190243479545 132.48354399635178, 354.0814698440483 130.5573808560707 C357.4439153401421 128.6312177157896, 364.36335532305606 129.20889435836952, 365.8581634511957 129.08604667421645 C367.35297157933536 128.96319899006338, 363.34805136081866 129.56740510285698, 363.0503186128861 129.82029475115226" stroke="#171425" stroke-width="3.2" fill="none" stroke-linecap="round" stroke-linejoin="round"/><path d="M218.94481572601944 309.1999106844887 C209.60729880873114 308.34580673314633, 201.72068006191404 309.9217172358185, 173.0592588433996 309.88362974133344 M219.2890074740164 309.6797782455571 C207.59185638381166 311.513598290392, 196.77320976061748 310.5170500043116, 170.95856218142436 309.75505953477693" stroke="#171425" stroke-width="3" fill="none" stroke-linecap="round" stroke-linejoin="round"/><path d="M497.4592582080513 307.8529608454555 C511.154538917914 312.45408127404454, 517.1183594379573 310.2686546692967, 545.4275857899338 307.7936658944935 M499.745742241852 308.7237564371899 C511.8557053042575 310.62248709655256, 525.5706410152837 308.8853644118354, 547.5040756089613 309.4337201701477" stroke="#171425" stroke-width="3" fill="none" stroke-linecap="round" stroke-linejoin="round"/>
</svg>