<svg xmlns="http://www.w3.org/2000/svg" width="720" height="720" viewBox="0 0 720 720">
  <rect width="720" height="720" fill="#b1a7cd"/>
  <path d="M135.37753970511258 208.8191054891795 L341.44106818325815 207.40227405540645 L339.9709285248071 499.8908209633082 L137.41871985085308 497.02592052929106" stroke="none" stroke-width="0" fill="#F5F2EC" stroke-linecap="round" stroke-linejoin="round"/><path d="M135.70487637526352 208.64256026510213 C178.3405856100997 210.42779168712767, 218.55643678748945 207.06402647772742, 342.49397465833454 211.91271518525585 M136.27645329200124 210.2407027521596 C182.7348018925024 207.91007348889022, 229.1245496935786 209.41777953109758, 341.5197798899955 210.24901573323717 M342.3161893491655 211.60985404796344 C342.2381774891626 279.24564999230904, 341.89554167236355 352.67090613259865, 341.21572018515025 499.15932218690006 M342.5974988155965 209.98471309866417 C345.4372032923547 317.8054133489051, 345.4146724558104 424.511207576351, 342.33953640656176 498.46017106314537 M343.63318262818035 497.75264249303785 C263.23957242360575 499.83571565622367, 183.21767805716078 497.45784061166074, 136.53217629130475 497.4273449311411 M341.2707098137314 498.56930710782666 C284.73693039378065 498.20191540811396, 224.93326486169502 497.1005402015379, 135.4136829234885 497.57014363333525 M134.9879621520948 496.5380672889552 C136.32943093282725 427.8789520214863, 136.29214156103035 353.97441756924866, 136.31071203527347 209.66262220505823 M136.3535767586676 498.53728580342136 C138.23495905128425 384.6509262613277, 138.76164313311048 269.8097268159361, 136.92846398115066 209.96047564322802" stroke="#171425" stroke-width="3.2" fill="none" stroke-linecap="round" stroke-linejoin="round"/><path d="M162.4128152564168 244.60524249523877 C195.04326026439665 244.29641773111075, 221.5310981556773 244.5034213722393, 316.63831388503314 246.0495444342494 M161.67797870859505 245.11024259105324 C197.20262775197625 241.61900043816715, 234.7148767404258 241.10735919804722, 315.7155448697507 243.66640773788095" stroke="#171425" stroke-width="2.4" fill="none" stroke-linecap="round" stroke-linejoin="round"/><path d="M160.92725773844867 281.2582926562056 C192.02827261388302 282.9644503740316, 223.4043220123276 284.6101169077402, 318.20664083156737 281.95958058740945 M162.13471347643062 282.154220782686 C202.3621074025519 280.6282852883117, 242.7035694553517 281.976069649555, 316.26105829728766 281.3450683732517" stroke="#171425" stroke-width="2.4" fill="none" stroke-linecap="round" stroke-linejoin="round"/><path d="M159.44170022048056 317.9113428171724 C194.21328496336938 317.2280830169525, 225.2775458689779 320.3124124432411, 314.57496777810155 317.8696167405695 M162.59144824426622 319.1981989743188 C204.9215870531276 319.6375701384563, 248.09226217027756 320.2447801010627, 316.8065717248246 319.02372900862247" stroke="#171425" stroke-width="2.4" fill="none" stroke-linecap="round" stroke-linejoin="round"/><path d="M163.15614270251245 359.7643929781392 C181.54068186730146 355.97111677486316, 202.63553883451968 355.29410909373183, 268.1432947246358 358.9796528937295 M163.0481830121018 358.84217716595157 C193.03522076448425 358.14448382248935, 224.5892630067654 358.011119386459, 266.75208515236153 356.70238964399323" stroke="#171425" stroke-width="2.4" fill="none" stroke-linecap="round" stroke-linejoin="round"/><path d="M372 486 C363.3602306675166 431.69455169327557, 360.9047861050814 391.73007838614285, 381.6487024974078 355.3182523716241 C402.7218687565376 327.06008016156653, 420.8628123115748 318.8130920279771, 445.8137775015086 332.8537753213197 C451.74870879563196 283.9222739486645, 469.952442649131 261.29244953679546, 493.9652824830264 265.35073816664516 C507.7861812861015 274.6235280741006, 515.9236649107188 298.2955719737957, 509.9649239849299 339.64567655213176 C522.5558886042485 305.29881568240626, 538.7318054309735 294.57995852517587, 555.2880804251879 304.53020424731073 C568.7097716680418 316.58818804311255, 569.8916957528642 341.6456865021338, 552.5113020967692 381.0635131467134 C573.4509432704499 367.54927455075085, 582.3651726276925 372.8479113408675, 587.9998111676425 382.4848732698709 C596.0211880794416 397.7031160581857, 585.3819113484273 422.77603326924145, 557.3950016807764 452.1261327613145 C524.1217959713191 480.946664876615, 490.46025908303756 499.29953064012034, 445.90193955414 504.5242178905755 C409.40106203071775 504.7986181089033, 386.76140154115853 494.013793264702, 369.3768625807017 486.1336330521852 C372 486, 372 486, 372 486" stroke="none" stroke-width="0" fill="#F5F2EC" stroke-linecap="round" stroke-linejoin="round"/><path d="M372 486 C361.372442195937 435.1572400767356, 361.53574410490694 387.9036879617721, 381.4320265632123 352.9542328197509 M372.9216027002782 486.6839451272041 C362.2423918607272 432.517509163674, 365.344839706067 387.87745155995714, 383.9025205572881 354.82982085293156 M384 354 C399.79932491195694 324.5461584089945, 423.74589390568434 317.6447212893516, 444.0906527739018 332.70004901476204 M383.94135829024015 352.1060281831771 C399.8391403429148 323.2568261741164, 419.98958410525694 316.65434485798704, 448.85939466381444 335.4598169875704 M446 334 C453.21700772258146 283.37977672802907, 467.06910535705583 263.7180237768839, 488.8179477315396 268.7549491483718 M444.0590672951192 331.63740269728004 C450.62402719561635 282.65675959513214, 466.6290832893488 264.1127934907439, 491.68544046605007 267.9967367023788 M490 268 C507.1840558947374 273.4287615377456, 514.1481885176152 292.67460046994194, 511.2590652447194 334.73842784948647 M489.3726178985089 268.43857892341913 C507.60901185079786 273.7777165312134, 513.1546782007255 291.6780938856366, 511.6596942188777 337.03963944559916 M510 336 C525.969581570352 301.6719824670504, 543.0656669876228 290.8111595390986, 558.107205997035 306.94068287201225 M507.6154451590031 338.3532702405006 C527.2306826466756 302.22203768060234, 540.2008803546863 293.495601063824, 558.8139460834302 307.39139325922355 M558 306 C571.6574104330192 321.6590122698496, 570.4479445756724 345.5326122799267, 555.14111754708 379.2851150948554 M557.3940310101956 305.27089315243063 C574.8200484943824 322.2008723352912, 572.6551635061143 344.79760364021485, 552.7158651270904 382.20554977899417 M554 380 C570.7169150413325 367.27262682504954, 582.702805298691 368.7145731129994, 587.6625943284482 384.69082852192224 M554.62540426068 377.6890672881156 C570.7389972113011 370.84105338102205, 584.4810886494754 367.9301988234681, 589.272124323491 381.2132192344032 M590 384 C594.4405148288855 399.42463846988977, 586.5902467152724 419.9325262505561, 558.9339776497334 451.2351302821189 M589.3746405940503 383.2761154014617 C597.1834205210644 401.64530563062056, 586.8347623521523 421.2868340826593, 561.5715255525149 452.8099454486929 M560 450 C529.5145094376057 483.4183959999432, 489.3933132590105 500.7576590298365, 451.4156556945294 503.9160306293517 M558.2923625689 451.0335633713752 C530.3796723868884 482.6791208239955, 492.2212950877783 498.828515480614, 452.688124600295 500.44258083885535 M450 502 C411.2565787177533 501.6446180024495, 383.22226290516556 499.85269524641336, 373.6035635214299 484.4147429425269 M451.8522396188229 502.6586402017623 C411.3676940115727 504.0909659614724, 382.0045929029025 497.56401600724087, 372.4843561592139 484.5561614156328 M372 486 C372 486, 372 486, 372 486 M372 486 C372 486, 372 486, 372 486" stroke="#171425" stroke-width="3.4" fill="none" stroke-linecap="round" stroke-linejoin="round"/>
</svg>