<svg xmlns="http://www.w3.org/2000/svg" width="720" height="720" viewBox="0 0 720 720">
  <rect width="720" height="720" fill="#b3a4ea"/>
  <path d="M167.91327179763465 185.54294362273066 L569.0316128322854 187.78302725162357 L566.1084631213919 536.4233327051625 L166.69301089737564 537.9290272196755" stroke="none" stroke-width="0" fill="#F5F2EC" stroke-linecap="round" stroke-linejoin="round"/><path d="M168.22955439051273 185.43666363980077 C247.83632852224432 185.97704473368617, 328.4590146630797 187.4006748201998, 569.0144053639608 186.25938055062338 M168.39548245461458 186.65461550087014 C324.6179579324401 184.0423253950238, 480.948463495054 183.6890439985454, 567.4251060245388 185.8934973087432 M566.6408397389672 185.89168928639435 C570.5976133556005 313.4756661919473, 571.1723555130125 439.44648914933936, 567.1278249796237 536.9198770143428 M568.0005978712541 186.13187650303308 C566.9923793771949 291.9987465592295, 567.0424550499353 399.4531212148452, 567.5593822207925 535.7738942724714 M566.7863412827078 534.6080999874391 C421.30292617281094 537.132863686107, 270.8810444828821 539.4473975838611, 167.1441971730328 536.9151882671392 M567.3836797912882 535.3353068713276 C478.8602462533428 538.5039706260058, 390.39003852737073 538.2352292599851, 167.90732813858315 536.7340443467456 M168.90418253843714 535.5643416990945 C167.10266698704197 443.0902913571701, 166.70286120831582 350.09855946261706, 167.3553712902104 186.58523534565018 M168.72727098181053 536.5221333767632 C166.4476450275315 462.0840760909633, 167.12503587397455 389.5100989839649, 168.6414975614412 186.36033872868865" stroke="#171425" stroke-width="3.2" fill="none" stroke-linecap="round" stroke-linejoin="round"/><path d="M167.38781670302674 250.67346300370681 C249.0757930660687 250.4091829123545, 329.5232214382568 249.70158673508448, 566.9566485684443 251.07517777551 M168.65427476835697 252.11292015994394 C252.74581642421887 251.74692420914022, 337.35701520712394 250.97402299035258, 567.7342015697691 251.7114219259932" stroke="#171425" stroke-width="2.8" fill="none" stroke-linecap="round" stroke-linejoin="round"/><path d="M246.6148507984577 250.07808099113387 C248.93693516463307 310.95569752201055, 248.06618580972645 367.5090432725305, 247.41629403279055 536.3100296324805 M248.29003898477023 251.22119176348008 C250.08212435209813 336.47991560504937, 250.40494006327313 421.61004639124286, 247.3258780822845 536.6120282753513" stroke="#171425" stroke-width="1.9" fill="none" stroke-linecap="round" stroke-linejoin="round"/><path d="M329.4376889075416 253.00625578000268 C331.121818783401 310.1302279423833, 330.01359563469936 367.7781807197693, 328.60816417039416 534.7217348555372 M328.6371404177919 252.47055403313226 C325.73739827210517 342.3597969612542, 325.7114075641491 432.99105603902126, 327.7404479941131 536.3678223120576" stroke="#171425" stroke-width="1.9" fill="none" stroke-linecap="round" stroke-linejoin="round"/><path d="M408.3087204566255 251.98262400887145 C409.35489584216907 309.3047583627561, 411.9610054596724 368.04731816700803, 409.80003430799775 537.085246638594 M408.9842418508136 251.74401302278443 C409.5412973188321 348.2396783174589, 409.16650019174506 444.3720656867996, 408.15501790594163 536.1236163487637" stroke="#171425" stroke-width="1.9" fill="none" stroke-linecap="round" stroke-linejoin="round"/><path d="M487.17975200570936 250.95899223774023 C491.539779460937 308.47928878312894, 489.95660872464526 364.36464905424685, 487.0400978856013 535.4969518616507 M487.35544000383527 251.01747201243663 C485.19657123883906 354.1195596736637, 484.472967692621 457.728978614578, 488.5695878177702 535.8794103854698" stroke="#171425" stroke-width="1.9" fill="none" stroke-linecap="round" stroke-linejoin="round"/><path d="M169.0725356531949 324.3006265705794 C249.2174035919614 324.9874263363742, 327.56173874038217 325.22265019370025, 568.7811022222468 322.59670847414947 M167.34019333326572 322.5053616688297 C274.6997075255644 325.22911389853687, 383.0988141519642 325.3135604120388, 568.496955312534 323.4729101329928" stroke="#171425" stroke-width="1.9" fill="none" stroke-linecap="round" stroke-linejoin="round"/><path d="M168.23079796570892 394.5374259344855 C247.5104753357858 391.4731717150425, 328.6259455155593 392.5235621085849, 566.7233454267304 395.35889849903606 M167.5989856470081 394.43686272790353 C284.30076241734315 391.45164855265324, 399.50736586403417 391.116475243846, 567.3328544577645 394.29083475024277" stroke="#171425" stroke-width="1.9" fill="none" stroke-linecap="round" stroke-linejoin="round"/><path d="M167.38906027822293 464.7742252983915 C248.7499398796102 467.3873740537108, 329.6901522907364 466.30653818346957, 567.6119814312138 465.1746957239227 M167.8577779607505 464.89516738697733 C292.42862090912195 464.15624736676966, 417.38911397610417 463.4014542356532, 567.6419500029949 465.1087593674927" stroke="#171425" stroke-width="1.9" fill="none" stroke-linecap="round" stroke-linejoin="round"/><path d="M327.90520405787976 324.10507791321726 L402.2159489097074 326.06982048433275 L399.50459922570735 389.3092241195962 L329.95747702736406 388.1735878912732" stroke="none" stroke-width="0" fill="#171425" stroke-linecap="round" stroke-linejoin="round"/><path d="M329.8939832774922 322.0667878272012 C343.5912721639499 326.13568015989586, 357.4343463821337 326.22145991620346, 401.95683243554083 324.25849599260835 M327.43267044136303 324.2348750337027 C342.72676195139064 323.54816566014733, 359.74087613979356 323.71318198049516, 399.49565547117965 325.18524931212886 M401.46314657013863 325.1480871619657 C397.253569225131 345.47854716200385, 400.51778365141007 362.0078049601987, 398.4123389212415 387.6120672466233 M399.9405403197743 324.2217758252285 C401.11938094510214 341.30623934706676, 399.2082440288224 359.4883056177758, 399.5008765191771 389.01045719822866 M399.2308921305463 390.39403359908613 C377.2175591638312 386.71973915710225, 359.70561455618594 387.07294864668626, 327.43749090712515 389.5235778393224 M400.38318431088703 388.28987082680686 C374.713776985649 388.9211075203657, 349.8726259813644 389.18874015083315, 328.84913889179006 387.78344559809193 M326.255441394262 390.4115424217656 C327.8630379692539 376.2675146760419, 329.00464077749103 360.1645332636312, 326.79500201623887 324.74232586640863 M326.9858374000527 388.75713794371114 C327.07769394474406 370.1770900352858, 328.2773226763524 352.01092295190324, 327.44624398062007 324.243188510742" stroke="#171425" stroke-width="0" fill="none" stroke-linecap="round" stroke-linejoin="round"/>
</svg>