<svg xmlns="http://www.w3.org/2000/svg" width="1200" height="630" viewBox="0 0 1200 630">
  <rect width="1200" height="630" fill="#b3a4ea"/>
  <g transform="translate(285,0) scale(0.875)"><path d="M215.7507684854001 181.94728213253893 C218.91980105341523 182.49565711025042, 224.0524181117821 183.83628171173066, 225.9743365405875 186.57959736087534 C227.8962549693929 189.32291301002002, 227.89147665153283 194.97978979019896, 227.28227905823263 198.407176027407 C226.67308146493244 201.83456226461502, 224.77413884643641 204.91126161681586, 222.3191509807864 207.14391478412352 C219.86416311513636 209.37656795143118, 215.83477834363583 211.71283495350812, 212.55235186433245 211.80309503125292 C209.26992538502907 211.89335510899772, 205.20351830143616 209.73772113073468, 202.62459210496618 207.68547525059233 C200.0456659084962 205.63322937044998, 197.80378548449892 202.75492344099573, 197.0787946855126 199.48961975039884 C196.3538038865263 196.22431605980196, 196.69332679380966 191.22198013133465, 198.27464731104823 188.093653107011 C199.8559678282868 184.96532608268734, 203.44109980084204 181.78310966883913, 206.56671778894392 180.71965760445693 C209.6923357770458 179.65620554007472, 214.83931286605096 181.41420049421745, 217.0283552396596 181.7129407207178 C219.21739761326822 182.01168094721814, 219.4774361471016 182.4377529356278, 219.70097203059575 182.51209896345893 M203.67077518530422 181.5011611668957 C205.89590996856458 179.89463759794944, 208.8264252283534 181.49261540347123, 212.13103432697187 181.74163755243436 C215.43564342559034 181.99065970139748, 220.6702226954486 181.04367408259589, 223.49842977701508 182.9952940606745 C226.32663685858157 184.9469140387531, 228.80647665679328 189.5622539830581, 229.10027681637084 193.45135742090605 C229.3940769759484 197.340460858754, 227.28056529974685 203.55133173795443, 225.26123073448045 206.32991468776214 C223.24189616921404 209.10849763756985, 220.13391827933629 209.71645982301732, 216.98426942477244 210.12285511975233 C213.83462057020859 210.52925041648734, 209.66261720089602 209.80992918893998, 206.3633376070974 208.7682864681723 C203.0640580132988 207.72664374740464, 198.72576015857695 206.5144494523816, 197.1885918619807 203.87299879514623 C195.65142356538448 201.23154813791086, 196.15783869571177 196.31054063854054, 197.14032782752003 192.91958252476007 C198.12281695932828 189.5286244109796, 202.11858275863716 184.8507123182499, 203.0835266528302 183.52725011246332 C204.04847054702321 182.20378790667675, 202.85677746508622 184.57750121971893, 202.92999119267822 184.97880929004063" stroke="#171425" stroke-width="2.6" fill="none" stroke-linecap="round" stroke-linejoin="round"/><path d="M308.1365902350691 153.30653985480896 C311.25099298973373 154.9704367418956, 314.56598757575466 158.33286444528943, 315.7043312451725 162.0300756641933 C316.84267491459036 165.72728688309718, 316.42304696310134 171.88014288673097, 314.9666522515762 175.48980716823223 C313.51025754005104 179.0994714497335, 310.1758374280969 182.2018996952007, 306.9659629760215 183.6880613532009 C303.7560885239461 185.17422301120112, 299.09794752210576 185.28157403609814, 295.70740553912384 184.4067771162335 C292.3168635561419 183.5319801963689, 288.5257260184048 181.52055296331423, 286.6227110781299 178.4392798340132 C284.719696137855 175.35800670471218, 284.0747667717489 169.55885134411483, 284.2893158974745 165.91913834042745 C284.50386502320015 162.27942533674008, 285.5432814239267 159.16761803930547, 287.91000583248376 156.60100181188903 C290.2767302410408 154.0343855844726, 294.6270505470851 150.55398754877677, 298.4896623488168 150.51944097592894 C302.3522741505485 150.4848944030811, 309.1198940661376 155.48515526431444, 311.08567664287386 156.39372237480205 C313.05145921961014 157.30228948528966, 310.48437007207974 155.89772501509665, 310.28435780923445 155.97084363885455 M302.11318234734966 152.25298803579895 C305.16246638506806 152.2890699030669, 307.6949720032045 152.81827805093647, 309.97981350178304 155.04827076160268 C312.2646550003616 157.2782634722689, 315.4623312098004 161.71218138553488, 315.8222313388211 165.6329442997962 C316.18213146784177 169.55370721405754, 313.97163083988005 175.26298492714372, 312.139214275907 178.57284824717064 C310.306797711934 181.88271156719756, 307.69498432483806 185.00553149553494, 304.82773195498305 185.49212421995776 C301.96047958512804 185.97871694438058, 298.01294703522973 183.31986153213222, 294.935700056777 181.4924045937076 C291.8584530783243 179.66494765528296, 287.96675956462343 177.13394476666858, 286.3642500842669 174.5273825894099 C284.7617406039104 171.92082041215124, 284.9258155799911 168.90196314532602, 285.32064317463806 165.85303153015562 C285.71547076928505 162.80409991498522, 286.04832751040703 158.64137778974865, 288.73321565214883 156.2337928983875 C291.4181037938906 153.82620800702634, 299.2122527213206 152.1129611347938, 301.42997202508883 151.40752218198864 C303.64769132885704 150.70208322918347, 302.01424464717684 151.67283666182985, 302.039531474758 152.00115918155646" stroke="#171425" stroke-width="2.6" fill="none" stroke-linecap="round" stroke-linejoin="round"/><path d="M384.99281031419525 174.25057343749359 C387.9674549798924 172.78608407689535, 392.8344459034307 173.68188493226327, 396.36077502418635 174.4905112323754 C399.887104144942 175.29913753248755, 404.22426202108403 176.30951785031138, 406.15078503872894 179.10233123816644 C408.07730805637385 181.8951446260215, 408.57532243407775 187.30151822925825, 407.9199131300558 191.2473915595058 C407.2645038260339 195.19326488975332, 404.44354720227227 200.23667978840848, 402.2183292145973 202.77757121965158 C399.99311122692234 205.31846265089467, 397.8179433029089 206.23088577810407, 394.568605204006 206.49274014696445 C391.31926710510317 206.75459451582483, 385.5065606087131 206.27560725173043, 382.7223006211801 204.34869743281394 C379.9380406336472 202.42178761389744, 378.72258335531046 198.3411181908075, 377.86304527880844 194.93128123346543 C377.0035072023064 191.52144427612336, 375.99760561923927 187.6156967301826, 377.56507216216806 183.8896756887616 C379.13253870509686 180.1636546473406, 385.3292861409598 174.31265402788, 387.2678445363812 172.57515498493942 C389.20640293180253 170.83765594199883, 389.0653970520524 172.8611343940343, 389.19642253469607 173.4646814311181 M384.936129360911 174.43736131954063 C387.50622741041263 172.701067629424, 390.3562439478166 172.49430238822953, 393.47443866670915 173.28809114244316 C396.5926333856017 174.0818798966568, 401.1563001553563 176.49086741300528, 403.6452976742664 179.20009384482245 C406.13429519317646 181.90932027663962, 408.1724035655145 185.62702004883934, 408.4084237801695 189.54344973334622 C408.64444399482454 193.4598794178531, 407.5974114667684 199.5066291014367, 405.0614189621965 202.69867195186373 C402.52542645762463 205.89071480229077, 396.59364680223854 208.27801522190276, 393.19246875273814 208.69570683590848 C389.79129070323773 209.1133984499142, 387.6464850055723 207.51151629291908, 384.6543506651942 205.2048216358981 C381.66221632481614 202.89812697887712, 376.5951377148051 198.59221730012143, 375.2396627104697 194.85553889378255 C373.8841877061343 191.11886048744367, 375.03528488278283 186.15728423576982, 376.5215006391818 182.7847511978648 C378.00771639558076 179.4122181599598, 382.5902072201731 176.0428984393942, 384.15695724886336 174.6203406663524 C385.7237072775536 173.1977828933106, 385.6176498812783 174.08294336406308, 385.9220008113234 174.24940455961394" stroke="#171425" stroke-width="2.6" fill="none" stroke-linecap="round" stroke-linejoin="round"/><path d="M475.59583823323356 146.79607698601347 C478.74257418483666 145.998871102289, 483.52327112029826 147.59399446983167, 486.3327843802662 149.41646956623848 C489.1422976402342 151.23894466264528, 491.2992811671285 154.03026642470732, 492.4529177930412 157.73092756445425 C493.60655441895386 161.43158870420118, 494.1844749532683 167.80270385844602, 493.25460413574217 171.6204364047201 C492.32473331821603 175.43816895099417, 489.873093558911 178.8396898419823, 486.8736928878845 180.63732284209877 C483.87429221685795 182.43495584221523, 478.8991928153434 183.45194289235945, 475.2582001095829 182.40623440541896 C471.6172074038224 181.36052591847846, 467.1780901465431 177.31293092630358, 465.0277366533215 174.36307192045572 C462.87738316009984 171.41321291460787, 462.26423838769693 168.27029165711815, 462.3560791502532 164.70708037033177 C462.4479199128095 161.14386908354538, 462.6411355587085 156.09174521959062, 465.57878122865907 152.98380419973742 C468.5164268986096 149.87586317988422, 476.53691879054907 146.5380813326659, 479.9819531699565 146.05943425121262 C483.42698754936396 145.58078716975933, 486.16245662263896 149.88966037154358, 486.2489875051038 150.11192171101766 M481.65521894469657 148.26020330228494 C484.8100082918278 149.05558779342584, 486.9034480094315 151.21794829006848, 488.76783053418245 154.02695476628412 C490.6322130589334 156.83596124249976, 492.92362120200517 161.27066484397247, 492.8415140932023 165.11424215957882 C492.75940698439945 168.95781947518518, 490.08883497181375 174.06859410327252, 488.2751878813653 177.08841865992218 C486.46154079091684 180.10824321657185, 485.1234636712543 182.6345762267984, 481.95963155051163 183.23318949947685 C478.795799429769 183.8318027721553, 472.3603414021675 182.64072578874186, 469.29219515690954 180.68009829599293 C466.2240489116516 178.719470803244, 464.6668882780069 175.26093539253185, 463.5507540789641 171.46942454298332 C462.43461987992123 167.6779136934348, 461.35490267006077 161.808000370911, 462.5953899626524 157.93103319870184 C463.83587725524404 154.05406602649268, 467.9628953211456 150.26752240122556, 470.99367783451385 148.2076215097284 C474.0244603478821 146.14772061823123, 479.37858303749624 145.5693398908912, 480.780085042862 145.5716278497188 C482.1815870482278 145.5739158085464, 479.1508772103698 147.49572386963564, 479.40268986670844 148.22134926269402" stroke="#171425" stroke-width="2.6" fill="none" stroke-linecap="round" stroke-linejoin="round"/><path d="M248.39464324495276 258.9354466825661 C251.44906707809943 259.3302578618141, 255.32806949778174 260.8611636080412, 257.6119162052486 263.2392235117947 C259.89576291271544 265.61728341554823, 261.80707021376 269.77864318443835, 262.09772348975383 273.2038061050872 C262.38837676574764 276.62896902573607, 261.3226873821832 281.2247646444643, 259.3558358612115 283.79020103568786 C257.38898434023986 286.3556374269114, 253.82053756849487 287.8504380121775, 250.29661436392385 288.59642445242844 C246.77269115935283 289.34241089267937, 241.5332565489395 289.5343803402131, 238.21229663378537 288.26611967719356 C234.89133671863124 286.997859014174, 231.71049885362268 284.3167581025732, 230.37085487299905 280.98686047431136 C229.0312108923754 277.6569628460495, 229.13868927318933 271.67000073949964, 230.1744327500435 268.2867339076224 C231.2101762268977 264.9034670757452, 232.55841717044183 262.09517355741616, 236.58531573412412 260.6872594830479 C240.61221429780642 259.27934540867966, 251.01708944284468 259.39841353369343, 254.33582413213725 259.83924946141303 C257.6545588214298 260.28008538913264, 256.8396836264035 263.12955833989975, 256.49772386987945 263.33227504936536 M240.30056938136016 259.455475316786 C243.18207619576762 257.86244768527195, 245.89373411575187 255.95710824515797, 248.7837906282817 257.20766390914304 C251.67384714081155 258.45821957312813, 255.5183929317011 263.8862266522374, 257.64090845653914 266.9588093006965 C259.7634239813772 270.0313919491556, 261.3407034700132 272.86543057990536, 261.51888377730995 275.64315979989783 C261.6970640846067 278.4208890198903, 261.085460180563 281.066030421699, 258.7099903003199 283.6251846206514 C256.33452042007673 286.1843388196038, 250.87706873838667 290.6603115629021, 247.26606449585117 290.9980849936122 C243.65506025331567 291.33585842432234, 239.6922417899627 287.6669719686738, 237.04396484510687 285.65182520491203 C234.39568790025103 283.63667844115025, 232.53564127578812 281.9547623189111, 231.3764028267161 278.90720441104173 C230.21716437764405 275.85964650317237, 228.76302234017092 270.8851209820624, 230.08853415067472 267.3664777576958 C231.41404596117852 263.8478345333292, 237.82571028853232 259.11304545830865, 239.32947368973888 257.79534506484197 C240.83323709094543 256.4776446713753, 239.22727785616317 258.9133596401925, 239.11111455791408 259.4602753968958" stroke="#171425" stroke-width="2.6" fill="none" stroke-linecap="round" stroke-linejoin="round"/><path d="M347.00637427009116 236.25353632642882 C350.1322668490178 237.3567857828781, 352.33555128102324 239.29258814905663, 353.90406519194056 242.30728306170855 C355.4725791028579 245.32197797436046, 356.9991480706485 250.59267919608664, 356.41745773559506 254.34170580234036 C355.8357674005416 258.0907324085941, 353.2424299140358 262.88164880228294, 350.4139231816199 264.80144269923096 C347.585416449204 266.721236596179, 343.2168885803171 266.4999490609133, 339.4464173410994 265.8604691840283 C335.67594610188166 265.2209893071433, 330.5414667224437 263.342899627212, 327.79109574631354 260.96456343792084 C325.0407247701834 258.5862272486297, 322.93389282753924 254.99852283472077, 322.9441914843183 251.59045204828152 C322.9544901410974 248.18238126184227, 325.5282164173518 243.46669154053458, 327.8528876869879 240.51613871928527 C330.177558956624 237.56558589803595, 333.01214623954445 234.18395159665164, 336.89221910213485 233.88713512078562 C340.77229196472524 233.5903186449196, 348.3158278077112 237.03366636435203, 351.13332486253046 238.7352398640892 C353.95082191734974 240.4368133638264, 354.1183789893671 243.89867362629283, 353.7972014310506 244.09657611920866 M345.1617136804427 232.74422090510052 C347.7319707543828 233.59170293610634, 349.3367197653036 237.6598223167656, 351.4036194309699 240.6498991371755 C353.4705190966362 243.63997595758542, 357.4369618519873 247.43581618517587, 357.56311167444045 250.68468182755996 C357.6892614968936 253.93354746994405, 355.2279673668449 257.8082597240353, 352.160518365689 260.14309299148 C349.09306936453305 262.4779262589247, 342.5770706308317 264.0706239121391, 339.15841766750486 264.69368143222823 C335.739764704178 265.31673895231734, 334.02109635424597 265.7144583104827, 331.6486005857279 263.8814381120148 C329.2761048172098 262.04841791354687, 326.18896342654875 257.534908618789, 324.9234430563965 253.69556024142085 C323.6579226862442 249.85621186405268, 322.6340663973242 243.76483085485356, 324.0554783648141 240.84534784780578 C325.47689033230404 237.925864840758, 330.112051888966 236.98413086480545, 333.4519148613361 236.17866219913424 C336.7917778337062 235.37319353346302, 342.2314724702089 236.56384528139515, 344.0946561990346 236.01253585377853 C345.9578399278603 235.46122642616191, 344.80208638483407 233.08749073931656, 344.63101723429025 232.87080563343457" stroke="#171425" stroke-width="2.6" fill="none" stroke-linecap="round" stroke-linejoin="round"/><path d="M423.86904550648757 256.8861885185831 C426.4144994390972 254.43546593326255, 430.0067051147515 253.19283369253645, 433.17356793286166 253.85309529213052 C436.3404307509718 254.51335689172458, 440.58425557335676 257.9690893975807, 442.8702224151485 260.8477581161474 C445.1561892569402 263.7264268347141, 446.4992938055269 267.59230296167823, 446.8893689836119 271.1251076035306 C447.2794441616969 274.65791224538293, 446.94697944837066 278.98151972904424, 445.2106734836585 282.04458596726136 C443.4743675189464 285.1076522054785, 439.6984405421497 288.78309305517627, 436.47153319533925 289.5035050328333 C433.2446258485288 290.2239170104903, 429.0378956512992 288.059688872208, 425.84922940279597 286.3670578332036 C422.66056315429273 284.6744267941992, 418.7536649881297 282.66250171971006, 417.33953570431964 279.34771879880685 C415.9254064205096 276.03293587790364, 416.4481351605967 270.01863044407276, 417.3644536999359 266.4783603077842 C418.2807722392751 262.9380901714957, 421.5459249651441 259.79289010265524, 422.8374469403548 258.1060979810756 C424.12896891556557 256.419305859496, 424.5957579337666 256.0724337638455, 425.11358555120046 256.3576075783064 M427.74443519315315 256.6420316200247 C430.90151551786147 255.65658425063663, 436.6663545590915 255.9329503457358, 439.9376200147749 257.1116508613159 C443.2088854704583 258.29035137689607, 446.2894894231813 260.57149031244154, 447.3720279272536 263.71423471350545 C448.45456643132593 266.85697911456936, 447.6078542580657 272.6038086578481, 446.43285103920863 275.9681172676994 C445.25784782035157 279.33242587755075, 443.1563268534385 281.6790598226723, 440.3220086141111 283.9000863726133 C437.4876903747837 286.12111292255435, 432.5555020441101 289.01010111833403, 429.4269416032445 289.2942765673456 C426.29838116237886 289.5784520163572, 423.82093314572927 288.23317405129814, 421.55064596891754 285.6051390666828 C419.2803587921058 282.97710408206746, 416.108196602286 277.6006430133404, 415.805218542374 273.5260666596537 C415.502240482462 269.45149030596696, 417.9367447128483 263.9055600929505, 419.73277760944563 261.15768094456234 C421.528810506043 258.4098017961742, 425.15720126019556 257.75236864441, 426.58141592195824 257.03879176932475 C428.0056305837209 256.3252148942395, 428.1660668697541 256.5683234146283, 428.27806558002175 256.87621969405086" stroke="#171425" stroke-width="2.6" fill="none" stroke-linecap="round" stroke-linejoin="round"/><path d="M506.2425080379104 226.79540210685013 C509.08005892040825 225.8069717033026, 512.3438121594363 226.9804809256609, 515.3579409009238 228.69099295784622 C518.3720696424114 230.40150499003153, 522.7432887555298 234.01597586046478, 524.3272804868354 237.058474299962 C525.9112722181411 240.10097273945922, 525.6350503557692 243.38981276157085, 524.861891288758 246.9459835948295 C524.0887322217468 250.50215442808815, 522.3035944704686 255.96621797496192, 519.6883260847679 258.395499299514 C517.0730576990672 260.824780624066, 512.4939354014999 261.65927290289187, 509.17028097455415 261.5216715421418 C505.84662654760837 261.38407018139173, 502.4084601795255 260.3701002430348, 499.74639952309315 257.5698911350137 C497.0843388666608 254.76968202699257, 493.6866361939065 248.76778263145417, 493.19791703596 244.7204168940151 C492.7091978780135 240.67305115657604, 494.4658961315448 236.49733023044405, 496.81408457541414 233.2856967103793 C499.1622730192835 230.07406319031458, 505.2238508305195 226.48013953067905, 507.287047699176 225.45061577362677 C509.35024456783253 224.42109201657448, 509.10552430551894 226.74567002665236, 509.1932657873532 227.1085541680656 M516.6112350348392 227.2237557952254 C519.8576994778346 228.21689779583215, 524.1778892187338 230.65767577301924, 525.7740811685671 234.18617059232227 C527.3702731184005 237.7146654116253, 527.1490015193716 244.66716419937046, 526.1883867338396 248.39472471104355 C525.2277719483076 252.12228522271664, 523.0007910660913 254.6103428806779, 520.0103924553753 256.5515336623607 C517.0199938446592 258.4927244440436, 511.87717886851027 260.0214019123781, 508.2459950695431 260.0418694011405 C504.6148112705759 260.0623368899029, 500.51619520485997 259.2859147762543, 498.2232896615721 256.67433859493525 C495.9303841182842 254.06276241361618, 494.5937596465578 248.0250288496331, 494.48856180981596 244.37241231322614 C494.3833639730741 240.71979577681918, 496.0088311489283 237.75095159434133, 497.5921026411209 234.75863937649348 C499.1753741333135 231.76632715864562, 501.0281655408486 227.43681871136334, 503.9881907629714 226.41853900613904 C506.9482159850942 225.40025930091474, 513.0497006529945 228.4597394885477, 515.3522539738575 228.64896114514758 C517.6548072947205 228.83818280174745, 517.7465120892198 227.3811231720158, 517.8035106881492 227.5538689457383" stroke="#171425" stroke-width="2.6" fill="none" stroke-linecap="round" stroke-linejoin="round"/><path d="M240.04409855809064 348.68149759266527 L483.3702955445275 349.5362298855558 L480.15280566420404 498.48221679423006 L235.88687427844852 500.50829498860986" stroke="none" stroke-width="0" fill="#F5F2EC" stroke-linecap="round" stroke-linejoin="round"/><path d="M238.3185692638876 349.9190031988685 C286.4053507533169 347.3815362474529, 333.80611292759534 345.7621565577561, 483.47231778868013 346.8371047379592 M238.28882151819073 347.51564082438034 C310.32263849929166 347.23134010886895, 384.2210692814281 346.4781753875672, 482.37256021316847 346.9260332142948 M482.9966810414568 348.3905521592125 C486.3142149016313 404.3120659766719, 483.1249173864774 459.30291172619906, 481.68637516591696 498.21563397850844 M482.64131101472304 349.1239916955121 C481.4393108632758 390.9421698060818, 482.86190156306776 435.875610234309, 482.27565110726283 499.1545986835845 M483.8261572771228 501.0787372743756 C385.34284234644025 498.8595144140532, 287.33589265280904 498.45793046037, 237.40319320969226 500.092858974476 M482.0376502380902 499.1487367719658 C419.67499495912864 499.98002202799836, 357.864302423578 499.8077277822555, 237.53417673217385 499.70356052332244 M237.8261033365503 498.63415861930696 C236.98745384017005 450.4098869783804, 234.14491192499176 400.9126499062404, 238.87129863593728 348.85645532812924 M237.2176150153391 501.09440543400126 C237.60437770159544 442.70923172058536, 236.3548753914386 385.75314478771764, 236.9936838905327 347.91507990406825" stroke="#171425" stroke-width="3.2" fill="none" stroke-linecap="round" stroke-linejoin="round"/><path d="M238.9339367263469 399.38164901087623 C287.27866564964467 398.90914599426424, 336.4058228709207 400.5852525093206, 483.5411512265093 398.7547401125613 M237.76584909281888 400.2098337808275 C314.0452215953918 398.46378217121554, 391.7466952591166 398.03652319089116, 482.58346308386155 400.5682311601706" stroke="#171425" stroke-width="2.4" fill="none" stroke-linecap="round" stroke-linejoin="round"/><path d="M309.64424820318817 345.9050160966814 C307.44610897776784 376.2805966846645, 312.59802765128313 410.2152188681066, 308.2326946534216 501.6036153160036 M310.1734767835587 347.2978191632777 C311.6014991913617 399.42968525774774, 309.9036711488545 449.12100150175394, 311.25134275369345 500.3660635370761" stroke="#171425" stroke-width="2.4" fill="none" stroke-linecap="round" stroke-linejoin="round"/><path d="M408.15869068522005 349.7580662576482 C410.0000820675455 380.3934026515111, 409.63951992779596 410.56737105678764, 409.80102159995585 499.5136514691636 M410.6302115513943 348.94179735491053 C412.5501861832753 402.43298211032527, 412.99337986034305 457.2292115167715, 409.1968561812304 500.0447241724469" stroke="#171425" stroke-width="2.4" fill="none" stroke-linecap="round" stroke-linejoin="round"/></g>
</svg>