<svg xmlns="http://www.w3.org/2000/svg" width="1200" height="630" viewBox="0 0 1200 630">
  <rect width="1200" height="630" fill="#b1a7cd"/>
  <g transform="translate(285,0) scale(0.875)"><path d="M169.5204680752009 169.71445802338422 L408.60324677936734 167.32528684027494 L406.521066911146 485.2208679307252 L168.9158840369433 484.2383472908288" stroke="none" stroke-width="0" fill="#F5F2EC" stroke-linecap="round" stroke-linejoin="round"/><path d="M165.84621701788885 168.49907771292882 C214.6585929986073 165.52956351891427, 263.2450447173377 166.02034795876145, 408.24669135768386 168.48626755705527 M167.3833625596792 169.00818107430973 C238.2683718973577 170.78302829052902, 307.81499972489866 170.96944539230896, 408.1335915589515 168.84058694802115 M408.54842644297804 166.67308579422664 C408.760669906125 266.29348550456933, 408.549864105434 368.32748291261606, 406.41418034282395 484.73784477385 M408.15838312669666 168.61652005562559 C408.18098882651054 264.33055280096045, 406.6249357346043 359.0624218306794, 408.80280410294813 483.55896004808255 M409.27238984710004 485.17305976615404 C326.28053762170083 482.8563826559306, 247.85849959031944 485.81873413959335, 170.13706187358784 482.3259871589148 M408.58952415386307 484.990414322947 C350.95680838015204 485.54597254769135, 291.98928151869114 484.8921957043335, 166.93520178045546 483.0258439651513 M167.43119154101382 482.5450471586242 C169.0390276561323 387.0899301044195, 167.4053013991269 289.4470489322646, 167.996723055979 167.82002988312334 M168.3304963193958 484.758643394504 C171.15807173912646 406.1258416354905, 170.7845033991054 327.263192201735, 168.17690259677164 167.8410318038468" stroke="#171425" stroke-width="3.2" fill="none" stroke-linecap="round" stroke-linejoin="round"/><path d="M196.04006468821316 200.36256473790854 L303.7624635832384 201.07962650191038 L305.8508737163618 219.5251625014469 L193.51910734344273 217.6305753244087" stroke="none" stroke-width="0" fill="#171425" stroke-linecap="round" stroke-linejoin="round"/><path d="M195.1298057211563 201.25196593571454 C216.57681784655898 200.8007026426701, 238.97035230319946 202.8283290080933, 306.2643677068874 200.49357916284353 M193.71674201572313 202.25384097164496 C228.0051794291474 201.5550880777487, 264.0139668219723 201.03822261270375, 305.1058293261565 202.68740290170535 M304.5390689717233 200.758334056288 C305.289478763403 209.19103078529238, 305.7700140083447 214.27149255946279, 306.1307967768609 220.01121585503222 M303.8488969928771 202.9067431717366 C304.16849908080843 208.82117225192488, 303.47129889455584 214.6098572372645, 304.69204008646307 218.90701365999877 M304.69556732308115 216.53025245238095 C263.0022297644242 219.05720982037082, 228.49373240809888 216.70558317981258, 196.35196425449104 218.0665285365656 M305.1810010501183 217.701690263208 C279.7165285126306 217.0980284618032, 257.8869384252466 215.96056305931927, 195.24282872462646 218.1853664434515 M194.68659982308745 218.1400602544844 C194.88338346736282 212.41194922074675, 195.3920427967772 207.2804801853001, 192.53176238164306 202.62192429199814 M193.56084392376243 218.85704393677415 C192.96038063425868 213.8247142227739, 193.06374487061353 212.07399881236256, 193.61864903517068 201.8075767236203" stroke="#171425" stroke-width="0" fill="none" stroke-linecap="round" stroke-linejoin="round"/><path d="M192.15978805944323 243.52941738441586 C230.99784154072404 243.12491725082248, 271.34119211062784 242.50050964946598, 382.37931022569535 246.48390454128383 M195.22735492624344 245.44964469633996 C252.1279491323978 248.15074207107276, 309.48710695244375 246.16870701829643, 382.4154501739889 246.3953486200422" stroke="#171425" stroke-width="2.4" fill="none" stroke-linecap="round" stroke-linejoin="round"/><path d="M195.87423054147513 285.38246754538267 C233.1830067401752 282.1806183364783, 268.01472166720777 282.9948736277018, 383.9476371722296 282.39394069444387 M193.084089694079 285.09362288797274 C255.4133931058459 287.436326719879, 316.3277283131145 287.31371726846584, 382.96096360152586 284.074009255413" stroke="#171425" stroke-width="2.4" fill="none" stroke-linecap="round" stroke-linejoin="round"/><path d="M194.388673023507 322.0355177063495 C230.16817193962632 326.436319422134, 269.8882512237877 323.48923760593755, 380.3159641187638 323.5039768476039 M193.5408244619146 322.13760107960553 C258.69883707929404 321.34511136868525, 325.7683496737853 320.48192751863525, 380.9064770290628 321.75266989078375" stroke="#171425" stroke-width="2.4" fill="none" stroke-linecap="round" stroke-linejoin="round"/><path d="M192.9031155055389 358.6885678673163 C222.72938465047628 360.45489512862827, 252.51387580316515 358.94647620501183, 333.88429106529804 359.41401300076393 M193.99755922975018 359.1815792712383 C246.82140128025785 360.5760922742765, 297.08321148948744 358.97233402558976, 333.45199045659973 359.4313305261545" stroke="#171425" stroke-width="2.4" fill="none" stroke-linecap="round" stroke-linejoin="round"/><path d="M424.3929030526183 298.2759078441937 C435.0152797470702 296.1011652714903, 448.286567758141 297.8785704018003, 459.1416206641547 301.14026755118834 C469.99667357016835 304.4019647005764, 480.90766503647046 310.44198839391737, 489.5232204887003 317.84609074052184 C498.13877594093015 325.2501930871263, 505.61778587713934 335.28361117834015, 510.83495337753357 345.5648816308152 C516.0521208779278 355.84615208329024, 520.0643155625081 368.46460719439494, 520.8262254910658 379.53371345537204 C521.5881354196234 390.60281971634913, 518.9317437459215 401.2037785315426, 515.4064129488794 411.97951919667787 C511.88108215183723 422.75525986181316, 506.8028501459728 435.3847075492998, 499.6742407088129 444.1881574461838 C492.54563127165295 452.99160734306787, 482.54421476243715 459.6963339099152, 472.6347563259199 464.80021857798215 C462.72529788940267 469.9041032460491, 451.5474686934913 473.81644831574516, 440.21749008970943 474.81146545458546 C428.8875114859276 475.80648259342576, 415.6050373087396 474.2896129908586, 404.65488470322873 470.77032141102393 C393.70473209771785 467.25102983118927, 382.9728819978975 460.9439075798992, 374.5165744566441 453.69571597557757 C366.0602669153907 446.44752437125595, 359.30009955314205 437.36399393323404, 353.9170394557082 427.2811717850943 C348.5339793582744 417.1983496369545, 343.3820252324773 404.55190755033885, 342.21821387204125 393.198783086739 C341.0544025116052 381.8456586231392, 343.45149929792336 369.92119090555497, 346.934171293092 359.1624250034952 C350.4168432882606 348.4036591014354, 355.59684798791807 337.47724682816767, 363.1142458430531 328.64618767438026 C370.6316436981881 319.81512852059285, 380.2704407885171 311.4127172185315, 392.0385584239021 306.17607008077084 C403.8066760592871 300.9394229430102, 425.0142170507192 298.5737283619367, 433.72295165536315 297.2263048478165 C442.4316862600071 295.8788813336963, 444.1010124981715 296.7873259190521, 444.2909660517659 298.09152899604993 M422.0367404963192 297.0143397025992 C432.5205570634788 294.52070089089773, 444.41883495817 296.4682560379034, 455.05821772240694 299.3750281220613 C465.69760048664386 302.28180020621915, 477.08303917880926 307.1436298687408, 485.8730370817408 314.4549722075463 C494.6630349846723 321.7663145463518, 502.3931939956905 332.9550001507498, 507.7982051399963 343.2430821548944 C513.203216284302 353.531164159039, 516.7737786538189 365.0578744811258, 518.3031039475753 376.183464232414 C519.8324292413317 387.3090539837022, 519.4902610123632 399.15128339581037, 516.9741569025348 409.9966206626236 C514.4580527927063 420.8419579294369, 509.78812258474613 432.27165872477724, 503.20647928860484 441.2554878332935 C496.62483599246355 450.23931694180976, 487.62549364490076 458.3647058517449, 477.48429712568714 463.8995953137212 C467.3431006064735 469.4344847756975, 454.0930027418374 472.9115745358329, 442.35930017332316 474.46482460515153 C430.62559760480895 476.01807467447014, 418.06206373559274 476.0925905823359, 407.0820817146019 473.2190957296329 C396.102099693611 470.3456008769299, 385.0941663932818 464.6465405379957, 376.47940804737806 457.22385548893357 C367.8646497014743 449.80117043987144, 360.5725095786912 439.02223883160724, 355.3935316391794 428.68298543526026 C350.2145536996676 418.3437320389133, 347.029138705019 406.31595398902243, 345.405540410307 395.18833511085165 C343.78194211559503 384.0607162326809, 342.9338215087997 372.5360956598461, 345.6519418709074 361.91727216623576 C348.3700622330151 351.2984486726254, 354.73627300981354 340.52808626215176, 361.7142625829533 331.47539414918947 C368.6922521560931 322.4227020362272, 377.3647704048305 313.0212387227677, 387.5198793097462 307.601119488462 C397.67498821466194 302.18100025415634, 417.1638850335605 300.4108624943893, 422.6449160124477 298.9546787433555 C428.1259469913349 297.4984949923217, 420.7285932843875 297.4032264056647, 420.4060651830694 298.8640169822592" stroke="#171425" stroke-width="3.8" fill="none" stroke-linecap="round" stroke-linejoin="round"/><path d="M403.3912558502713 318.0000618780554 C411.9350035237059 312.9104168306653, 424.6073992030867 311.3175032551576, 434.9627740399074 311.989104400329 C445.3181488767281 312.6607055455004, 456.56915592278136 316.8636522605134, 465.52350487119566 322.0296687490839 C474.47785381960995 327.1956852376544, 482.61660300592416 334.6512704099804, 488.6888677303932 342.98520333175196 C494.76113245486226 351.31913625352354, 499.5991786978875 361.7685927231744, 501.95709321800996 372.0332662797134 C504.3150077381324 382.29793983625245, 505.5250165438821 394.18271306181344, 502.8363548511278 404.57324467098624 C500.1476931583735 414.96377628015904, 492.8072166869197 426.380705875482, 485.82512306148436 434.3764559347503 C478.84302943604905 442.3722059940186, 470.44392687887057 448.6028863726236, 460.9437930985158 452.5477450265958 C451.44365931816105 456.49260368056804, 439.2696283791043 458.3142500165985, 428.8243203793559 458.04560785858365 C418.37901237960756 457.7769657005688, 407.4596916812773 455.7723765895031, 398.27194510002573 450.93589207850664 C389.08419851877414 446.0994075675102, 379.73201614028625 437.37686964807756, 373.6978408918463 429.0267007926048 C367.6636656434063 420.67653193713204, 363.81623048667007 410.9814883947114, 362.06689360938583 400.8348789456699 C360.3175567321016 390.68826949662844, 360.64062492196314 378.5964847521917, 363.2018196281407 368.14704409835576 C365.76301433431826 357.6976034445198, 370.6190047494163 346.5613102467342, 377.4340618464512 338.1382350226544 C384.24911894348605 329.7151597985746, 398.9676563252061 320.63830738324833, 404.09216221034995 317.6085927538769 C409.2166680954938 314.5788781245055, 407.7306525120214 318.5772499398824, 408.18109715731407 319.95994724642594 M397.5899278853989 319.5314116235049 C405.60047634867857 314.08698668010106, 418.3854404456416 314.45237203970237, 428.680323000087 314.1209365866514 C438.9752055545324 313.7895011336004, 449.54939726718624 313.5865167548364, 459.3592232120714 317.542798905199 C469.1690491569566 321.4990810555616, 480.45127862889854 329.85734702483006, 487.53927866939796 337.85862948882703 C494.6272787098974 345.859911952824, 499.34993646127765 355.1641249028374, 501.887223455068 365.5504936891807 C504.42451044885837 375.93686247552404, 504.81334412876663 389.660278904771, 502.76300063214 400.17684220688693 C500.7126571355134 410.69340550900284, 495.84467602156514 419.94422882249614, 489.5851624753082 428.64987350187613 C483.3256489290513 437.3555181812561, 474.4890741091092 447.5274364896447, 465.20591935459834 452.4107102831668 C455.9227646000875 457.2939840766889, 443.9755067191584 458.12822002197004, 433.8862339482432 457.9495162630087 C423.79696117732806 457.7708125040474, 414.1600117192891 455.04466939527117, 404.67028272910727 451.33848772939893 C395.1805537389254 447.6323060635267, 383.88537321181434 443.3136560263652, 376.94786000715226 435.7124262677754 C370.0103468024902 428.1111965091856, 365.48834778674285 416.5548112947155, 363.04520350113484 405.7311091778601 C360.6020592155268 394.90740706100473, 360.70584794388935 381.61026027327637, 362.28899429350423 370.7702135666433 C363.8721406431191 359.9301668600102, 366.85198750106207 348.95067191529984, 372.5440815988241 340.6908289380616 C378.23617569658614 332.43098596082336, 391.8104799979261 324.4774297067424, 396.4415588800764 321.21115570321393 C401.0726377622267 317.9448816996855, 399.38594293228925 320.03299855009595, 400.33055489172574 321.0931849168908" stroke="#171425" stroke-width="2" fill="none" stroke-linecap="round" stroke-linejoin="round"/><path d="M507.1330978438258 462.16601931601764 C519.6977706719025 478.41767083919797, 533.4399938944563 489.8992966449931, 578.399233584106 539.4043383792043 M504.9081721402705 460.9773829959333 C532.0196417248801 488.23802892718163, 558.3470476946786 516.0228087991818, 579.1616113044322 537.1392762444914" stroke="#171425" stroke-width="5.6" fill="none" stroke-linecap="round" stroke-linejoin="round"/></g>
</svg>